<svg width="159" height="126" viewBox="0 0 159 126" fill="none" xmlns="http://www.w3.org/2000/svg">
<path d="M2.03846 123.946H155.603" stroke="#D62300" stroke-width="3" stroke-linecap="round" stroke-linejoin="round"/>
<path d="M108.256 40.9363L105.321 21.0365V2.05432H21.0641V21.0365L8.67026 122.59" stroke="#D62300" stroke-width="3" stroke-linecap="round" stroke-linejoin="round"/>
<path d="M28.5385 21.2283H97.8462" stroke="#D62300" stroke-width="3" stroke-linejoin="round" stroke-dasharray="3 3"/>
<path d="M150.167 51.3587V41.7717H105.321V51.3587H98.5256V60.9456H100.102L106.421 123.946H149.066L155.385 60.9456H156.962V51.3587H150.167Z" stroke="#D62300" stroke-width="3" stroke-linecap="round" stroke-linejoin="round"/>
<path d="M100.564 60.2609H154.923" stroke="#D62300" stroke-width="2" stroke-linecap="round" stroke-linejoin="round"/>
<path d="M104.641 52.0435H150.846" stroke="#D62300" stroke-width="2" stroke-linecap="round" stroke-linejoin="round"/>
<path d="M63.1923 99.9783C78.5784 99.9783 91.0513 87.4082 91.0513 71.9022C91.0513 56.3962 78.5784 43.8261 63.1923 43.8261C47.8062 43.8261 35.3333 56.3962 35.3333 71.9022C35.3333 87.4082 47.8062 99.9783 63.1923 99.9783Z" stroke="#D62300" stroke-width="2" stroke-linecap="round" stroke-linejoin="round"/>
<path d="M49.6026 71.9022L60.4744 82.8587L78.141 59.5761" stroke="#D62300" stroke-width="3" stroke-linecap="round" stroke-linejoin="round"/>
</svg>
